<mxfile host="app.diagrams.net" modified="2023-07-27T08:42:19.347Z" agent="Mozilla/5.0 (Windows NT 10.0; Win64; x64) AppleWebKit/537.36 (KHTML, like Gecko) Chrome/114.0.0.0 Safari/537.36" etag="hOU1WjYgEf60yTGwbchM" version="21.6.5" type="github">
  <diagram name="Page-1" id="e_qJXU3TRhxLymGpGND4">
    <mxGraphModel dx="1562" dy="821" grid="0" gridSize="10" guides="1" tooltips="1" connect="1" arrows="1" fold="1" page="1" pageScale="1" pageWidth="827" pageHeight="1169" background="#FFFFFF" math="0" shadow="0">
      <root>
        <mxCell id="0" />
        <mxCell id="1" parent="0" />
        <mxCell id="KPnP_rj-Ig-0siqroWyY-3" value="" style="swimlane;startSize=0;rounded=1;" parent="1" vertex="1">
          <mxGeometry x="450" y="320" width="157.5" height="120" as="geometry" />
        </mxCell>
        <mxCell id="KPnP_rj-Ig-0siqroWyY-57" value="&lt;b&gt;Api gateway&lt;/b&gt;" style="text;strokeColor=none;align=center;fillColor=none;html=1;verticalAlign=middle;whiteSpace=wrap;rounded=1;" parent="KPnP_rj-Ig-0siqroWyY-3" vertex="1">
          <mxGeometry x="-17.5" y="50" width="175" height="40" as="geometry" />
        </mxCell>
        <mxCell id="KPnP_rj-Ig-0siqroWyY-4" value="" style="shape=cylinder;whiteSpace=wrap;html=1;boundedLbl=1;backgroundOutline=1;rounded=1;" parent="1" vertex="1">
          <mxGeometry x="440" y="30" width="140" height="100" as="geometry" />
        </mxCell>
        <mxCell id="KPnP_rj-Ig-0siqroWyY-5" value="" style="swimlane;startSize=0;rounded=1;" parent="1" vertex="1">
          <mxGeometry x="450" y="600" width="160" height="130" as="geometry" />
        </mxCell>
        <mxCell id="KPnP_rj-Ig-0siqroWyY-39" value="" style="image;aspect=fixed;html=1;points=[];align=center;fontSize=12;image=img/lib/azure2/ai_machine_learning/Machine_Learning.svg;rounded=1;" parent="KPnP_rj-Ig-0siqroWyY-5" vertex="1">
          <mxGeometry x="38" y="26" width="64" height="68" as="geometry" />
        </mxCell>
        <mxCell id="KPnP_rj-Ig-0siqroWyY-40" value="&lt;b&gt;Machine learning&lt;/b&gt;" style="text;strokeColor=none;align=center;fillColor=none;html=1;verticalAlign=middle;whiteSpace=wrap;rounded=1;" parent="KPnP_rj-Ig-0siqroWyY-5" vertex="1">
          <mxGeometry x="-15" y="90" width="175" height="40" as="geometry" />
        </mxCell>
        <mxCell id="KPnP_rj-Ig-0siqroWyY-6" value="" style="swimlane;startSize=0;rounded=1;" parent="1" vertex="1">
          <mxGeometry x="80" y="320" width="157.5" height="160" as="geometry" />
        </mxCell>
        <mxCell id="KPnP_rj-Ig-0siqroWyY-10" value="Submit" style="rounded=1;fillColor=#0057D8;align=center;strokeColor=none;html=1;whiteSpace=wrap;fontColor=#ffffff;fontSize=12;sketch=0;" parent="KPnP_rj-Ig-0siqroWyY-6" vertex="1">
          <mxGeometry x="59.5" y="80" width="49.5" height="23" as="geometry" />
        </mxCell>
        <mxCell id="KPnP_rj-Ig-0siqroWyY-27" value="" style="sketch=0;pointerEvents=1;shadow=0;dashed=0;html=1;strokeColor=none;fillColor=#505050;labelPosition=center;verticalLabelPosition=bottom;verticalAlign=top;outlineConnect=0;align=center;shape=mxgraph.office.concepts.upload;rounded=1;" parent="KPnP_rj-Ig-0siqroWyY-6" vertex="1">
          <mxGeometry x="40" y="20" width="48" height="55" as="geometry" />
        </mxCell>
        <mxCell id="KPnP_rj-Ig-0siqroWyY-58" value="&lt;b&gt;Website&lt;/b&gt;" style="text;strokeColor=none;align=center;fillColor=none;html=1;verticalAlign=middle;whiteSpace=wrap;rounded=1;" parent="KPnP_rj-Ig-0siqroWyY-6" vertex="1">
          <mxGeometry x="-17.5" y="120" width="175" height="40" as="geometry" />
        </mxCell>
        <mxCell id="KPnP_rj-Ig-0siqroWyY-7" value="" style="sketch=0;outlineConnect=0;fontColor=#232F3E;gradientColor=none;fillColor=#232F3D;strokeColor=none;dashed=0;verticalLabelPosition=bottom;verticalAlign=top;align=center;html=1;fontSize=12;fontStyle=0;aspect=fixed;pointerEvents=1;shape=mxgraph.aws4.user;rounded=1;" parent="1" vertex="1">
          <mxGeometry x="100" y="100" width="78" height="78" as="geometry" />
        </mxCell>
        <mxCell id="KPnP_rj-Ig-0siqroWyY-29" value="" style="endArrow=classic;html=1;rounded=1;" parent="1" edge="1">
          <mxGeometry width="50" height="50" relative="1" as="geometry">
            <mxPoint x="133.62" y="200" as="sourcePoint" />
            <mxPoint x="134" y="300" as="targetPoint" />
          </mxGeometry>
        </mxCell>
        <mxCell id="KPnP_rj-Ig-0siqroWyY-30" value="Upload csv file" style="text;strokeColor=none;align=center;fillColor=none;html=1;verticalAlign=middle;whiteSpace=wrap;rounded=1;" parent="1" vertex="1">
          <mxGeometry x="140" y="230" width="80" height="40" as="geometry" />
        </mxCell>
        <mxCell id="KPnP_rj-Ig-0siqroWyY-31" value="" style="endArrow=classic;html=1;rounded=1;" parent="1" edge="1">
          <mxGeometry width="50" height="50" relative="1" as="geometry">
            <mxPoint x="260" y="380" as="sourcePoint" />
            <mxPoint x="420" y="380" as="targetPoint" />
          </mxGeometry>
        </mxCell>
        <mxCell id="KPnP_rj-Ig-0siqroWyY-32" value="" style="endArrow=classic;html=1;rounded=1;" parent="1" edge="1">
          <mxGeometry width="50" height="50" relative="1" as="geometry">
            <mxPoint x="520" y="300" as="sourcePoint" />
            <mxPoint x="520" y="160" as="targetPoint" />
          </mxGeometry>
        </mxCell>
        <mxCell id="KPnP_rj-Ig-0siqroWyY-33" value="" style="endArrow=classic;html=1;rounded=1;" parent="1" edge="1">
          <mxGeometry width="50" height="50" relative="1" as="geometry">
            <mxPoint x="520" y="450" as="sourcePoint" />
            <mxPoint x="520" y="590" as="targetPoint" />
          </mxGeometry>
        </mxCell>
        <mxCell id="KPnP_rj-Ig-0siqroWyY-34" value="Send file for storage" style="text;strokeColor=none;align=center;fillColor=none;html=1;verticalAlign=middle;whiteSpace=wrap;rounded=1;" parent="1" vertex="1">
          <mxGeometry x="530" y="220" width="80" height="40" as="geometry" />
        </mxCell>
        <mxCell id="KPnP_rj-Ig-0siqroWyY-35" value="Send file for training" style="text;strokeColor=none;align=center;fillColor=none;html=1;verticalAlign=middle;whiteSpace=wrap;rounded=1;" parent="1" vertex="1">
          <mxGeometry x="530" y="500" width="80" height="40" as="geometry" />
        </mxCell>
        <mxCell id="KPnP_rj-Ig-0siqroWyY-37" value="" style="endArrow=classic;html=1;rounded=1;" parent="1" edge="1">
          <mxGeometry width="50" height="50" relative="1" as="geometry">
            <mxPoint x="480" y="585" as="sourcePoint" />
            <mxPoint x="480" y="455" as="targetPoint" />
          </mxGeometry>
        </mxCell>
        <mxCell id="KPnP_rj-Ig-0siqroWyY-38" value="Return trained model and visualization" style="text;strokeColor=none;align=center;fillColor=none;html=1;verticalAlign=middle;whiteSpace=wrap;rounded=1;" parent="1" vertex="1">
          <mxGeometry x="385" y="500" width="80" height="40" as="geometry" />
        </mxCell>
        <mxCell id="KPnP_rj-Ig-0siqroWyY-41" value="Send file to fast api" style="text;strokeColor=none;align=center;fillColor=none;html=1;verticalAlign=middle;whiteSpace=wrap;rounded=1;" parent="1" vertex="1">
          <mxGeometry x="270" y="340" width="130" height="60" as="geometry" />
        </mxCell>
        <mxCell id="KPnP_rj-Ig-0siqroWyY-43" value="" style="endArrow=classic;html=1;rounded=1;" parent="1" edge="1">
          <mxGeometry width="50" height="50" relative="1" as="geometry">
            <mxPoint x="410" y="410" as="sourcePoint" />
            <mxPoint x="260" y="410" as="targetPoint" />
          </mxGeometry>
        </mxCell>
        <mxCell id="KPnP_rj-Ig-0siqroWyY-44" value="Send back visualization and model endpoint" style="text;strokeColor=none;align=center;fillColor=none;html=1;verticalAlign=middle;whiteSpace=wrap;rounded=1;" parent="1" vertex="1">
          <mxGeometry x="280" y="410" width="130" height="60" as="geometry" />
        </mxCell>
        <mxCell id="KPnP_rj-Ig-0siqroWyY-45" value="" style="endArrow=classic;html=1;rounded=1;" parent="1" edge="1">
          <mxGeometry width="50" height="50" relative="1" as="geometry">
            <mxPoint x="480" y="300" as="sourcePoint" />
            <mxPoint x="480" y="160" as="targetPoint" />
          </mxGeometry>
        </mxCell>
        <mxCell id="KPnP_rj-Ig-0siqroWyY-46" value="Save train model" style="text;strokeColor=none;align=center;fillColor=none;html=1;verticalAlign=middle;whiteSpace=wrap;rounded=1;" parent="1" vertex="1">
          <mxGeometry x="390" y="210" width="80" height="40" as="geometry" />
        </mxCell>
        <mxCell id="KPnP_rj-Ig-0siqroWyY-49" value="&lt;b&gt;1&lt;/b&gt;" style="text;strokeColor=none;align=center;fillColor=none;html=1;verticalAlign=middle;whiteSpace=wrap;rounded=1;" parent="1" vertex="1">
          <mxGeometry x="150" y="215" width="60" height="30" as="geometry" />
        </mxCell>
        <mxCell id="KPnP_rj-Ig-0siqroWyY-50" value="&lt;b&gt;2&lt;/b&gt;" style="text;strokeColor=none;align=center;fillColor=none;html=1;verticalAlign=middle;whiteSpace=wrap;rounded=1;" parent="1" vertex="1">
          <mxGeometry x="300" y="310" width="60" height="75" as="geometry" />
        </mxCell>
        <mxCell id="KPnP_rj-Ig-0siqroWyY-51" value="&lt;b&gt;7&lt;/b&gt;" style="text;strokeColor=none;align=center;fillColor=none;html=1;verticalAlign=middle;whiteSpace=wrap;rounded=1;" parent="1" vertex="1">
          <mxGeometry x="315" y="430" width="60" height="75" as="geometry" />
        </mxCell>
        <mxCell id="KPnP_rj-Ig-0siqroWyY-52" value="&lt;b&gt;6&lt;/b&gt;" style="text;strokeColor=none;align=center;fillColor=none;html=1;verticalAlign=middle;whiteSpace=wrap;rounded=1;" parent="1" vertex="1">
          <mxGeometry x="360" y="192.5" width="60" height="75" as="geometry" />
        </mxCell>
        <mxCell id="KPnP_rj-Ig-0siqroWyY-53" value="&lt;b&gt;3&lt;/b&gt;" style="text;strokeColor=none;align=center;fillColor=none;html=1;verticalAlign=middle;whiteSpace=wrap;rounded=1;" parent="1" vertex="1">
          <mxGeometry x="590" y="202.5" width="60" height="75" as="geometry" />
        </mxCell>
        <mxCell id="KPnP_rj-Ig-0siqroWyY-54" value="&lt;b&gt;4&lt;/b&gt;" style="text;strokeColor=none;align=center;fillColor=none;html=1;verticalAlign=middle;whiteSpace=wrap;rounded=1;" parent="1" vertex="1">
          <mxGeometry x="530" y="450" width="60" height="75" as="geometry" />
        </mxCell>
        <mxCell id="KPnP_rj-Ig-0siqroWyY-55" value="&lt;b&gt;5&lt;/b&gt;" style="text;strokeColor=none;align=center;fillColor=none;html=1;verticalAlign=middle;whiteSpace=wrap;rounded=1;" parent="1" vertex="1">
          <mxGeometry x="395" y="450" width="60" height="75" as="geometry" />
        </mxCell>
        <mxCell id="KPnP_rj-Ig-0siqroWyY-56" value="&lt;b&gt;Storage&lt;/b&gt;" style="text;strokeColor=none;align=center;fillColor=none;html=1;verticalAlign=middle;whiteSpace=wrap;rounded=1;" parent="1" vertex="1">
          <mxGeometry x="480" y="70" width="60" height="75" as="geometry" />
        </mxCell>
      </root>
    </mxGraphModel>
  </diagram>
</mxfile>
